C:/Program Files/Krita (x64)/bin/ffmpeg.exe -hide_banner -y -y -r 30 -start_number 0 -start_number_range 1 -i C:/Users/Gusta/Desktop/Website/images/frame%04d.png -i C:/Users/Gusta/Desktop/Website/images/KritaTempPalettegen_%06d.png -lavfi [0:v][1:v]paletteuse=dither=sierra2_4a:diff_mode=none -f gif -loop 0 -gifflags +transdiff C:/Users/Gusta/Desktop/Website/images/tetrahedral.gif
=====================================================
Input #0, image2, from 'C:/Users/Gusta/Desktop/Website/images/frame%04d.png':
  Duration: 00:00:06.48, start: 0.000000, bitrate: N/A
  Stream #0:0: Video: png, rgba(pc), 560x471 [SAR 2834:2834 DAR 560:471], 25 fps, 25 tbr, 25 tbn, 25 tbc
Input #1, image2, from 'C:/Users/Gusta/Desktop/Website/images/KritaTempPalettegen_%06d.png':
  Duration: 00:00:00.04, start: 0.000000, bitrate: N/A
  Stream #1:0: Video: png, rgba(pc), 16x16 [SAR 1:1 DAR 1:1], 25 fps, 25 tbr, 25 tbn, 25 tbc
Stream mapping:
  Stream #0:0 (png) -> paletteuse:default
  Stream #1:0 (png) -> paletteuse:palette
  paletteuse -> Stream #0:0 (gif)
Press [q] to stop, [?] for help
[image2 @ 00000203d40ef080] Thread message queue blocking; consider raising the thread_queue_size option (current value: 8)
Output #0, gif, to 'C:/Users/Gusta/Desktop/Website/images/tetrahedral.gif':
  Metadata:
    encoder         : Lavf58.76.100
  Stream #0:0: Video: gif, pal8(pc, gbr/unknown/unknown, progressive), 560x471 [SAR 1:1 DAR 560:471], q=2-31, 200 kb/s, 30 fps, 100 tbn (default)
    Metadata:
      encoder         : Lavc58.134.100 gif
frame=    1 fps=0.0 q=-0.0 size=       0kB time=00:00:00.01 bitrate=   0.0kbits/s speed=0.58x    frame=   67 fps=0.0 q=-0.0 size=    3584kB time=00:00:02.21 bitrate=13285.1kbits/s speed=4.24x    frame=  136 fps=133 q=-0.0 size=    7680kB time=00:00:04.51 bitrate=13950.0kbits/s speed= 4.4x    frame=  162 fps=133 q=-0.0 Lsize=    9128kB time=00:00:05.38 bitrate=13898.6kbits/s speed=4.42x    
video:9128kB audio:0kB subtitle:0kB other streams:0kB global headers:0kB muxing overhead: 0.000214%
